<svg width="332" height="2" viewBox="0 0 332 2" fill="none" xmlns="http://www.w3.org/2000/svg">
<path d="M0.99 0.0599998H5.94V1.932H0.99V0.0599998ZM16.4904 0.0599998H21.4404V1.932H16.4904V0.0599998ZM31.9908 0.0599998H36.9408V1.932H31.9908V0.0599998ZM47.4912 0.0599998H52.4412V1.932H47.4912V0.0599998ZM62.9916 0.0599998H67.9416V1.932H62.9916V0.0599998ZM78.492 0.0599998H83.442V1.932H78.492V0.0599998ZM93.9923 0.0599998H98.9423V1.932H93.9923V0.0599998ZM109.493 0.0599998H114.443V1.932H109.493V0.0599998ZM124.993 0.0599998H129.943V1.932H124.993V0.0599998ZM140.494 0.0599998H145.444V1.932H140.494V0.0599998ZM155.994 0.0599998H160.944V1.932H155.994V0.0599998ZM171.494 0.0599998H176.444V1.932H171.494V0.0599998ZM186.995 0.0599998H191.945V1.932H186.995V0.0599998ZM202.495 0.0599998H207.445V1.932H202.495V0.0599998ZM217.995 0.0599998H222.945V1.932H217.995V0.0599998ZM233.496 0.0599998H238.446V1.932H233.496V0.0599998ZM248.996 0.0599998H253.946V1.932H248.996V0.0599998ZM264.497 0.0599998H269.447V1.932H264.497V0.0599998ZM279.997 0.0599998H284.947V1.932H279.997V0.0599998ZM295.497 0.0599998H300.447V1.932H295.497V0.0599998ZM310.998 0.0599998H315.948V1.932H310.998V0.0599998ZM326.498 0.0599998H331.448V1.932H326.498V0.0599998Z" fill="#AB0A14"/>
</svg>
