<svg width="18" height="18" viewBox="0 0 18 18" fill="none" xmlns="http://www.w3.org/2000/svg">
<path d="M9 0.0625C4.06418 0.0625 0.0625 4.06418 0.0625 9C0.0625 13.9358 4.06418 17.9375 9 17.9375C13.9358 17.9375 17.9375 13.9358 17.9375 9C17.9375 4.06418 13.9358 0.0625 9 0.0625ZM13.125 10.375H9C8.81766 10.375 8.6428 10.3026 8.51386 10.1736C8.38493 10.0447 8.3125 9.86984 8.3125 9.6875V3.5C8.3125 3.31766 8.38493 3.1428 8.51386 3.01386C8.6428 2.88493 8.81766 2.8125 9 2.8125C9.18234 2.8125 9.35721 2.88493 9.48614 3.01386C9.61507 3.1428 9.6875 3.31766 9.6875 3.5V9H13.125C13.3073 9 13.4822 9.07243 13.6111 9.20136C13.7401 9.33029 13.8125 9.50516 13.8125 9.6875C13.8125 9.86984 13.7401 10.0447 13.6111 10.1736C13.4822 10.3026 13.3073 10.375 13.125 10.375Z" fill="#AB0A14"/>
</svg>
