<svg width="107" height="79" viewBox="0 0 107 79" fill="none" xmlns="http://www.w3.org/2000/svg">
<path d="M48.6445 48.3281C42.4295 45.1721 35.5701 43.9141 30.5469 43.9141C20.7079 43.9141 0.53125 49.9481 0.53125 62.0117V71.2812H33.6367V67.7345C33.6367 63.5412 35.4023 59.3368 38.4922 55.832C40.9574 53.0335 44.4092 50.4358 48.6445 48.3281Z" fill="white"/>
<path d="M72.0391 46.5625C60.5471 46.5625 37.6094 53.6603 37.6094 67.75V78.3438H106.469V67.75C106.469 53.6603 83.5311 46.5625 72.0391 46.5625Z" fill="white"/>
<path d="M72.0391 39.5C82.7655 39.5 91.4609 30.8045 91.4609 20.0781C91.4609 9.35172 82.7655 0.65625 72.0391 0.65625C61.3127 0.65625 52.6172 9.35172 52.6172 20.0781C52.6172 30.8045 61.3127 39.5 72.0391 39.5Z" fill="white"/>
<path d="M30.5469 39.5C39.323 39.5 46.4375 32.3855 46.4375 23.6094C46.4375 14.8332 39.323 7.71875 30.5469 7.71875C21.7707 7.71875 14.6562 14.8332 14.6562 23.6094C14.6562 32.3855 21.7707 39.5 30.5469 39.5Z" fill="white"/>
</svg>
