<svg width="21" height="22" viewBox="0 0 21 22" fill="none" xmlns="http://www.w3.org/2000/svg">
<path d="M10.5 1.83334C7.11375 1.83334 4.375 4.70251 4.375 8.25001C4.375 13.0625 10.5 20.1667 10.5 20.1667C10.5 20.1667 16.625 13.0625 16.625 8.25001C16.625 4.70251 13.8862 1.83334 10.5 1.83334ZM6.125 8.25001C6.125 5.72001 8.085 3.66668 10.5 3.66668C12.915 3.66668 14.875 5.72001 14.875 8.25001C14.875 10.89 12.355 14.8408 10.5 17.3067C8.68 14.8592 6.125 10.8625 6.125 8.25001Z" fill="white" fill-opacity="0.7"/>
<path d="M10.5 10.5417C11.7081 10.5417 12.6875 9.51566 12.6875 8.25001C12.6875 6.98436 11.7081 5.95834 10.5 5.95834C9.29188 5.95834 8.3125 6.98436 8.3125 8.25001C8.3125 9.51566 9.29188 10.5417 10.5 10.5417Z" fill="white" fill-opacity="0.7"/>
</svg>
