<svg width="21" height="31" viewBox="0 0 21 31" fill="none" xmlns="http://www.w3.org/2000/svg">
<path d="M20.4562 11.1251C20.4562 9.7845 20.1922 8.45705 19.6792 7.21852C19.1661 5.97999 18.4142 4.85463 17.4663 3.9067C16.5183 2.95877 15.393 2.20683 14.1544 1.69381C12.9159 1.18079 11.5885 0.916748 10.2479 0.916748C8.90731 0.916748 7.57986 1.18079 6.34132 1.69381C5.10279 2.20683 3.97743 2.95877 3.0295 3.9067C2.08157 4.85463 1.32963 5.97999 0.816614 7.21852C0.303597 8.45705 0.0395508 9.7845 0.0395508 11.1251C0.0395508 13.1478 0.637468 15.029 1.65101 16.6157H1.63934C5.08101 22.0042 10.2479 30.0834 10.2479 30.0834L18.8564 16.6157H18.8462C19.8968 14.9771 20.4556 13.0716 20.4562 11.1251ZM10.2479 15.5001C9.08756 15.5001 7.97476 15.0391 7.15429 14.2187C6.33382 13.3982 5.87289 12.2854 5.87289 11.1251C5.87289 9.96476 6.33382 8.85196 7.15429 8.03149C7.97476 7.21102 9.08756 6.75008 10.2479 6.75008C11.4082 6.75008 12.521 7.21102 13.3415 8.03149C14.162 8.85196 14.6229 9.96476 14.6229 11.1251C14.6229 12.2854 14.162 13.3982 13.3415 14.2187C12.521 15.0391 11.4082 15.5001 10.2479 15.5001Z" fill="#545454"/>
</svg>
