<svg width="76" height="86" viewBox="0 0 76 86" fill="none" xmlns="http://www.w3.org/2000/svg">
<path d="M74.6288 49.965L27.4878 3.10842C25.4974 1.1179 22.8006 0 19.9889 0C17.1772 0 14.4803 1.1179 12.49 3.10842L11.571 4.02954C9.52923 6.0425 8.36516 8.78346 8.33302 11.6538C8.32514 13.0552 8.59588 14.4441 9.12943 15.7395C9.66298 17.0348 10.4486 18.2107 11.4406 19.1984L19.8992 27.6743L2.64977 44.9325C1.7961 45.7901 1.12201 46.81 0.667096 47.9324C0.212183 49.0547 -0.0143818 50.2569 0.000707015 51.4682C0.0107418 52.6499 0.25969 53.8174 0.732512 54.9C1.20533 55.9826 1.89221 56.9579 2.75166 57.7669L29.4949 83.5011C31.1708 85.111 33.4043 86.0068 35.7256 86C38.0469 85.9931 40.2751 85.0842 41.9415 83.4643L67.2318 58.8984C67.6892 58.4426 68.2741 58.137 68.9089 58.0222C69.7127 57.8935 70.526 57.8347 71.3399 57.8466H71.4011C72.3129 57.8482 73.2046 57.5775 73.9624 57.0692C74.7203 56.5609 75.3099 55.8379 75.6561 54.9924C76.0024 54.1469 76.0896 53.2172 75.9066 52.3218C75.7237 51.4265 75.2788 50.606 74.6288 49.965ZM24.5127 23.0483L16.0499 14.5683C15.6698 14.1888 15.3682 13.7378 15.1623 13.2411C14.9565 12.7445 14.8506 12.212 14.8506 11.6742C14.8506 11.1364 14.9565 10.604 15.1623 10.1073C15.3682 9.61068 15.6698 9.15966 16.0499 8.78015L17.1014 7.72831C17.4812 7.34747 17.9321 7.04536 18.4285 6.83924C18.9248 6.63312 19.4568 6.52703 19.994 6.52703C20.5312 6.52703 21.0632 6.63312 21.5595 6.83924C22.0558 7.04536 22.5068 7.34747 22.8866 7.72831L31.3819 16.1777L24.5127 23.0483Z" fill="white"/>
</svg>
