<svg width="113" height="113" viewBox="0 0 113 113" fill="none" xmlns="http://www.w3.org/2000/svg">
<path d="M33.5469 56.5C42.323 56.5 49.4375 49.3855 49.4375 40.6094C49.4375 31.8332 42.323 24.7188 33.5469 24.7188C24.7707 24.7188 17.6562 31.8332 17.6562 40.6094C17.6562 49.3855 24.7707 56.5 33.5469 56.5Z" fill="white"/>
<path d="M51.6445 65.3281C45.4295 62.1721 38.5701 60.9141 33.5469 60.9141C23.7079 60.9141 3.53125 66.9481 3.53125 79.0117V88.2812H36.6367V84.7345C36.6367 80.5412 38.4023 76.3368 41.4922 72.832C43.9574 70.0335 47.4092 67.4358 51.6445 65.3281Z" fill="white"/>
<path d="M75.0391 63.5625C63.5471 63.5625 40.6094 70.6603 40.6094 84.75V95.3438H109.469V84.75C109.469 70.6603 86.5311 63.5625 75.0391 63.5625Z" fill="white"/>
<path d="M75.0391 56.5C85.7655 56.5 94.4609 47.8045 94.4609 37.0781C94.4609 26.3517 85.7655 17.6562 75.0391 17.6562C64.3127 17.6562 55.6172 26.3517 55.6172 37.0781C55.6172 47.8045 64.3127 56.5 75.0391 56.5Z" fill="white"/>
</svg>
