<svg width="15" height="15" viewBox="0 0 15 15" fill="none" xmlns="http://www.w3.org/2000/svg">
<path d="M14.7244 11.7499L11.3017 8.63784C11.1399 8.49078 10.9273 8.41235 10.7087 8.41911C10.4902 8.42587 10.2828 8.51728 10.1304 8.67404L8.11552 10.7462C7.63052 10.6536 6.65547 10.3496 5.6518 9.34849C4.64812 8.34398 4.34416 7.36641 4.25407 6.88479L6.32456 4.86904C6.48152 4.71674 6.57307 4.50935 6.57983 4.29076C6.58659 4.07216 6.50802 3.85951 6.36077 3.69781L3.24955 0.275917C3.10223 0.113711 2.89749 0.0153214 2.6788 0.00164341C2.4601 -0.0120345 2.24469 0.0600771 2.07831 0.202663L0.251156 1.76963C0.105582 1.91573 0.0186939 2.11018 0.00697348 2.31609C-0.00565665 2.52659 -0.246471 7.51292 3.62003 11.3811C6.99312 14.7533 11.2183 15 12.382 15C12.5521 15 12.6565 14.9949 12.6843 14.9933C12.8901 14.9817 13.0845 14.8945 13.2299 14.7482L14.796 12.9203C14.9392 12.7544 15.0118 12.5392 14.9984 12.3205C14.9851 12.1018 14.8867 11.897 14.7244 11.7499Z" fill="white"/>
</svg>
