<svg width="64" height="74" viewBox="0 0 64 74" fill="none" xmlns="http://www.w3.org/2000/svg">
<path d="M61.3245 31.9565L6.89211 0.519329C6.15779 0.126345 5.35004 -0.0482492 4.54239 0.0114377C3.73473 0.0711247 2.95283 0.363198 2.26785 0.86107C1.58287 1.35894 1.01657 2.0468 0.620509 2.86203C0.224445 3.67726 0.0111931 4.59396 0.000164589 5.5287V68.376C-0.00669307 69.3355 0.200851 70.2808 0.602738 71.1206C1.00462 71.9604 1.58726 72.6662 2.29434 73.1698C3.00141 73.6735 3.80901 73.9579 4.63908 73.9957C5.46914 74.0334 6.2936 73.8232 7.03277 73.3853L61.3245 41.9482C62.1287 41.4818 62.8048 40.7664 63.2773 39.8818C63.7498 38.9972 64 37.9782 64 36.9388C64 35.8994 63.7498 34.8804 63.2773 33.9958C62.8048 33.1112 62.1287 32.3957 61.3245 31.9294V31.9565Z" fill="#AB0A14"/>
</svg>
