<svg width="96" height="96" viewBox="0 0 96 96" fill="none" xmlns="http://www.w3.org/2000/svg">
<g clip-path="url(#clip0)">
<path d="M93.215 20.8837L78.0106 36.0412L68.9018 26.9643L84.1062 11.8124C75.6274 7.68741 63.7343 7.67054 56.6937 14.6905C50.0712 21.2905 49.2443 31.6799 52.4674 39.853L18.6706 73.3818C18.4608 73.5908 18.2944 73.8392 18.1808 74.1127C18.0672 74.3862 18.0088 74.6794 18.0088 74.9755C18.0088 75.2717 18.0672 75.5649 18.1808 75.8384C18.2944 76.1119 18.4608 76.3603 18.6706 76.5693L28.4712 86.3399C28.6802 86.5497 28.9286 86.7161 29.2021 86.8297C29.4756 86.9432 29.7688 87.0017 30.0649 87.0017C30.3611 87.0017 30.6543 86.9432 30.9278 86.8297C31.2013 86.7161 31.4497 86.5497 31.6587 86.3399L65.4087 52.4962C73.5012 55.5355 83.7837 54.6787 90.2974 48.1837C97.3287 41.1618 97.3137 29.3699 93.215 20.8837V20.8837Z" fill="white"/>
<path d="M68.5228 57.8662L55.0547 71.3662L69.2166 86.3512C69.4042 86.5507 69.63 86.7104 69.8806 86.8208C70.1313 86.9312 70.4016 86.9899 70.6754 86.9936C70.9492 86.9973 71.221 86.9458 71.4745 86.8422C71.728 86.7386 71.9581 86.585 72.1509 86.3906L83.4009 75.0543C83.5933 74.8594 83.745 74.6281 83.847 74.3739C83.9491 74.1198 83.9995 73.8478 83.9953 73.574C83.9911 73.3001 83.9324 73.0298 83.8226 72.7789C83.7129 72.528 83.5542 72.3014 83.3559 72.1125L68.5228 57.8662Z" fill="white"/>
<path d="M22.3131 39.7501C22.3131 38.837 21.5631 38.0007 20.9162 37.3538L20.8693 37.3088L20.5806 37.0332C20.5627 37.0129 20.5491 36.9891 20.5407 36.9633C20.5323 36.9375 20.5293 36.9102 20.5318 36.8832C21.0742 36.5778 21.6974 36.4469 22.3168 36.5082C22.555 36.5326 23.425 36.677 24.6418 37.4288C25.2756 37.8207 30.76 43.097 32.8787 45.0601C32.5071 45.4486 32.3019 45.9669 32.3068 46.5045C32.3117 47.0421 32.5263 47.5565 32.905 47.9382L34.2981 49.412L46.6093 37.1926L45.0625 35.7226C44.6822 35.3424 44.1671 35.1279 43.6295 35.1258C43.0918 35.1237 42.5751 35.3342 42.1918 35.7113C37.8793 31.0838 36.7543 29.0645 36.3793 27.752C35.5506 24.8513 37.1556 22.502 39.0043 21.002C40.0993 20.1357 42.3568 19.487 44.4418 19.3145C45.1694 19.2716 45.8995 19.3093 46.6187 19.427C47.2693 19.5207 47.8 19.6407 48.0043 19.6895C48.712 19.8802 49.402 20.1311 50.0668 20.4395L52.3168 16.877C51.6222 15.6695 50.778 14.5545 49.8043 13.5582C49.4901 13.2293 49.1656 12.9104 48.8312 12.602C47.3725 11.2613 43.5812 9.00197 38.5956 9.00197C35.7162 8.9988 32.8642 9.56066 30.2012 10.6557C23.1812 13.532 18.5987 17.4526 16.4931 19.5338L16.48 19.547C15.065 20.9689 13.7559 22.4923 12.5631 24.1051C11.56 25.517 11.6687 27.0751 11.7418 28.1063C11.7418 28.1663 11.7418 28.232 11.755 28.2938C11.167 27.868 10.4597 27.6383 9.73371 27.6376C9.284 27.6345 8.8382 27.7213 8.42251 27.8929C8.00682 28.0645 7.62963 28.3175 7.31308 28.637L0.375584 35.5538C0.136971 35.7926 0.00292969 36.1163 0.00292969 36.4538C0.00292969 36.7914 0.136971 37.1151 0.375584 37.3538L12.1881 49.1251C12.4244 49.3612 12.7447 49.4938 13.0787 49.4938C13.4127 49.4938 13.7331 49.3612 13.9693 49.1251L20.9181 42.1876C21.5631 41.5426 22.3131 40.6613 22.3131 39.7501Z" fill="white"/>
</g>
<defs>
<clipPath id="clip0">
<rect width="96" height="96" fill="white"/>
</clipPath>
</defs>
</svg>
