<svg width="31" height="31" viewBox="0 0 31 31" fill="none" xmlns="http://www.w3.org/2000/svg">
<path d="M11.1106 4.84375C7.67056 4.84375 4.84375 7.66669 4.84375 11.1106V19.8894C4.84375 23.3294 7.66669 26.1562 11.1106 26.1562H19.8894C23.3294 26.1562 26.1562 23.3333 26.1562 19.8894V11.1116C26.1562 7.67056 23.3333 4.84375 19.8894 4.84375H11.1106ZM11.1106 6.78125H19.8894C20.4582 6.78048 21.0215 6.89194 21.5471 7.10924C22.0727 7.32654 22.5503 7.64541 22.9524 8.04758C23.3546 8.44975 23.6735 8.92732 23.8908 9.45292C24.1081 9.97853 24.2195 10.5418 24.2188 11.1106V19.8894C24.2195 20.4582 24.1081 21.0215 23.8908 21.5471C23.6735 22.0727 23.3546 22.5503 22.9524 22.9524C22.5503 23.3546 22.0727 23.6735 21.5471 23.8908C21.0215 24.1081 20.4582 24.2195 19.8894 24.2188H11.1116C10.5427 24.2196 9.97931 24.1083 9.45359 23.891C8.92787 23.6738 8.45019 23.3549 8.04792 22.9528C7.64565 22.5506 7.32669 22.073 7.10934 21.5473C6.89198 21.0216 6.78048 20.4582 6.78125 19.8894V11.1116C6.78036 10.5427 6.89172 9.97931 7.10896 9.45359C7.32621 8.92787 7.64505 8.45019 8.04724 8.04792C8.44942 7.64565 8.92703 7.32669 9.4527 7.10934C9.97836 6.89198 10.5418 6.78048 11.1106 6.78125V6.78125ZM21.2214 8.90087C21.106 8.90036 20.9917 8.92271 20.885 8.96664C20.7782 9.01057 20.6813 9.0752 20.5997 9.1568C20.5181 9.2384 20.4534 9.33536 20.4095 9.44208C20.3656 9.5488 20.3432 9.66316 20.3438 9.77856C20.3438 10.2668 20.7332 10.6562 21.2214 10.6562C21.3369 10.6569 21.4514 10.6346 21.5582 10.5908C21.665 10.5469 21.7621 10.4823 21.8438 10.4007C21.9255 10.3191 21.9903 10.2221 22.0342 10.1153C22.0782 10.0085 22.1006 9.89405 22.1001 9.77856C22.1006 9.66308 22.0782 9.54864 22.0342 9.44185C21.9903 9.33507 21.9255 9.23807 21.8438 9.15645C21.7621 9.07484 21.665 9.01023 21.5582 8.96636C21.4514 8.92249 21.3369 8.90023 21.2214 8.90087V8.90087ZM15.5 9.6875C12.3031 9.6875 9.6875 12.3031 9.6875 15.5C9.6875 18.6969 12.3031 21.3125 15.5 21.3125C18.6969 21.3125 21.3125 18.6969 21.3125 15.5C21.3125 12.3031 18.6969 9.6875 15.5 9.6875ZM15.5 11.625C17.6535 11.625 19.375 13.3465 19.375 15.5C19.375 17.6535 17.6535 19.375 15.5 19.375C13.3465 19.375 11.625 17.6535 11.625 15.5C11.625 13.3465 13.3465 11.625 15.5 11.625Z" fill="white"/>
</svg>
