<svg width="33" height="33" viewBox="0 0 33 33" fill="none" xmlns="http://www.w3.org/2000/svg">
<g opacity="0.95">
<path d="M30.3289 9.54918C30.1645 8.93872 29.8428 8.38213 29.3957 7.9351C28.9487 7.48808 28.3921 7.16631 27.7817 7.00199C25.5335 6.39355 16.4998 6.39355 16.4998 6.39355C16.4998 6.39355 7.46605 6.39355 5.21792 7.00199C4.60747 7.16631 4.05087 7.48808 3.60385 7.9351C3.15682 8.38213 2.83505 8.93872 2.67074 9.54918C2.25096 11.8419 2.04726 14.169 2.0623 16.4998C2.04726 18.8306 2.25096 21.1577 2.67074 23.4504C2.83505 24.0609 3.15682 24.6175 3.60385 25.0645C4.05087 25.5115 4.60747 25.8333 5.21792 25.9976C7.46605 26.6061 16.4998 26.6061 16.4998 26.6061C16.4998 26.6061 25.5335 26.6061 27.7817 25.9976C28.3921 25.8333 28.9487 25.5115 29.3957 25.0645C29.8428 24.6175 30.1645 24.0609 30.3289 23.4504C30.7486 21.1577 30.9523 18.8306 30.9373 16.4998C30.9523 14.169 30.7486 11.8419 30.3289 9.54918V9.54918ZM13.6123 20.8311V12.1686L21.1095 16.4998L13.6123 20.8311Z" fill="white"/>
</g>
</svg>
