<svg width="96" height="96" viewBox="0 0 96 96" fill="none" xmlns="http://www.w3.org/2000/svg">
<g clip-path="url(#clip0)">
<path d="M93.215 20.8838L78.0106 36.0413L68.9018 26.9644L84.1062 11.8125C75.6274 7.68754 63.7343 7.67066 56.6937 14.6907C50.0712 21.2907 49.2443 31.68 52.4674 39.8532L18.6706 73.3819C18.4608 73.591 18.2944 73.8393 18.1808 74.1128C18.0672 74.3863 18.0088 74.6795 18.0088 74.9757C18.0088 75.2718 18.0672 75.565 18.1808 75.8385C18.2944 76.112 18.4608 76.3604 18.6706 76.5694L28.4712 86.34C28.6802 86.5498 28.9286 86.7162 29.2021 86.8298C29.4756 86.9434 29.7688 87.0018 30.0649 87.0018C30.3611 87.0018 30.6543 86.9434 30.9278 86.8298C31.2013 86.7162 31.4497 86.5498 31.6587 86.34L65.4087 52.4963C73.5012 55.5357 83.7837 54.6788 90.2974 48.1838C97.3287 41.1619 97.3137 29.37 93.215 20.8838Z" fill="white"/>
<path d="M68.5228 57.8661L55.0547 71.3661L69.2166 86.3511C69.4042 86.5506 69.63 86.7103 69.8806 86.8207C70.1313 86.931 70.4016 86.9898 70.6754 86.9935C70.9492 86.9972 71.221 86.9457 71.4745 86.8421C71.728 86.7385 71.9581 86.5849 72.1509 86.3905L83.4009 75.0542C83.5933 74.8593 83.745 74.628 83.847 74.3738C83.9491 74.1196 83.9995 73.8477 83.9953 73.5738C83.9911 73.3 83.9324 73.0297 83.8226 72.7788C83.7129 72.5278 83.5542 72.3013 83.3559 72.1123L68.5228 57.8661Z" fill="white"/>
<path d="M22.3131 39.75C22.3131 38.8368 21.5631 38.0006 20.9162 37.3537L20.8693 37.3087L20.5806 37.0331C20.5627 37.0127 20.5491 36.9889 20.5407 36.9631C20.5323 36.9373 20.5293 36.9101 20.5318 36.8831C21.0742 36.5777 21.6974 36.4468 22.3168 36.5081C22.555 36.5325 23.425 36.6768 24.6418 37.4287C25.2756 37.8206 30.76 43.0968 32.8787 45.06C32.5071 45.4485 32.3019 45.9668 32.3068 46.5044C32.3117 47.042 32.5263 47.5564 32.905 47.9381L34.2981 49.4118L46.6093 37.1925L45.0625 35.7225C44.6822 35.3423 44.1671 35.1278 43.6295 35.1257C43.0918 35.1236 42.5751 35.3341 42.1918 35.7112C37.8793 31.0837 36.7543 29.0643 36.3793 27.7518C35.5506 24.8512 37.1556 22.5018 39.0043 21.0018C40.0993 20.1356 42.3568 19.4868 44.4418 19.3143C45.1694 19.2715 45.8995 19.3092 46.6187 19.4268C47.2693 19.5206 47.8 19.6406 48.0043 19.6893C48.712 19.8801 49.402 20.131 50.0668 20.4393L52.3168 16.8768C51.6222 15.6694 50.778 14.5543 49.8043 13.5581C49.4901 13.2292 49.1656 12.9103 48.8312 12.6018C47.3725 11.2612 43.5812 9.00184 38.5956 9.00184C35.7162 8.99868 32.8642 9.56054 30.2012 10.6556C23.1812 13.5318 18.5987 17.4525 16.4931 19.5337L16.48 19.5468C15.065 20.9688 13.7559 22.4922 12.5631 24.105C11.56 25.5168 11.6687 27.075 11.7418 28.1062C11.7418 28.1662 11.7418 28.2318 11.755 28.2937C11.167 27.8679 10.4597 27.6382 9.73371 27.6375C9.284 27.6344 8.8382 27.7212 8.42251 27.8928C8.00682 28.0644 7.62963 28.3174 7.31308 28.6368L0.375584 35.5537C0.136971 35.7925 0.00292969 36.1162 0.00292969 36.4537C0.00292969 36.7913 0.136971 37.115 0.375584 37.3537L12.1881 49.125C12.4244 49.3611 12.7447 49.4937 13.0787 49.4937C13.4127 49.4937 13.7331 49.3611 13.9693 49.125L20.9181 42.1875C21.5631 41.5425 22.3131 40.6612 22.3131 39.75Z" fill="white"/>
</g>
<defs>
<clipPath id="clip0">
<rect width="96" height="96" fill="white"/>
</clipPath>
</defs>
</svg>
