<svg width="21" height="21" viewBox="0 0 21 21" fill="none" xmlns="http://www.w3.org/2000/svg">
<path d="M19.7663 16.1239L15.3167 12.0782C15.1064 11.8871 14.83 11.7851 14.5459 11.7939C14.2618 11.8027 13.9922 11.9215 13.7941 12.1253L11.1747 14.8192C10.5442 14.6987 9.27663 14.3036 7.97185 13.0021C6.66707 11.6962 6.27192 10.4254 6.1548 9.79927L8.84644 7.17877C9.05049 6.98078 9.1695 6.71117 9.17829 6.427C9.18707 6.14282 9.08494 5.86637 8.89351 5.65616L4.84892 1.20766C4.65741 0.996794 4.39124 0.868886 4.10695 0.851105C3.82265 0.833323 3.54261 0.927069 3.32632 1.11243L0.951015 3.1495C0.761768 3.33944 0.648814 3.59222 0.633577 3.85991C0.617158 4.13356 0.304099 10.6158 5.33055 15.6445C9.71557 20.0284 15.2083 20.3491 16.7211 20.3491C16.9422 20.3491 17.0779 20.3426 17.114 20.3404C17.3817 20.3254 17.6343 20.2119 17.8233 20.0218L19.8593 17.6454C20.0454 17.4298 20.1399 17.15 20.1225 16.8657C20.1051 16.5815 19.9773 16.3152 19.7663 16.1239V16.1239Z" fill="#494949"/>
</svg>
